{
	"patcher" : 	{
		"fileversion" : 1,
		"appversion" : 		{
			"major" : 8,
			"minor" : 6,
			"revision" : 0,
			"architecture" : "x64",
			"modernui" : 1
		}
,
		"classnamespace" : "box",
		"rect" : [ 34.0, 99.0, 985.0, 778.0 ],
		"bglocked" : 0,
		"openinpresentation" : 0,
		"default_fontsize" : 12.0,
		"default_fontface" : 0,
		"default_fontname" : "Arial",
		"gridonopen" : 1,
		"gridsize" : [ 15.0, 15.0 ],
		"gridsnaponopen" : 1,
		"objectsnaponopen" : 1,
		"statusbarvisible" : 2,
		"toolbarvisible" : 1,
		"lefttoolbarpinned" : 0,
		"toptoolbarpinned" : 0,
		"righttoolbarpinned" : 0,
		"bottomtoolbarpinned" : 0,
		"toolbars_unpinned_last_save" : 0,
		"tallnewobj" : 0,
		"boxanimatetime" : 200,
		"enablehscroll" : 1,
		"enablevscroll" : 1,
		"devicewidth" : 0.0,
		"description" : "",
		"digest" : "",
		"tags" : "",
		"style" : "",
		"subpatcher_template" : "",
		"assistshowspatchername" : 0,
		"boxes" : [ 			{
				"box" : 				{
					"contdata" : 1,
					"id" : "obj-49",
					"maxclass" : "multislider",
					"numinlets" : 1,
					"numoutlets" : 2,
					"outlettype" : [ "", "" ],
					"parameter_enable" : 0,
					"patching_rect" : [ 1050.0, 120.0, 195.0, 120.0 ],
					"setminmax" : [ 0.0, 1.0 ],
					"size" : 16
				}

			}
, 			{
				"box" : 				{
					"id" : "obj-50",
					"maxclass" : "newobj",
					"numinlets" : 1,
					"numoutlets" : 1,
					"outlettype" : [ "" ],
					"patching_rect" : [ 1050.0, 255.0, 87.0, 22.0 ],
					"text" : "prepend green"
				}

			}
, 			{
				"box" : 				{
					"contdata" : 1,
					"id" : "obj-47",
					"maxclass" : "multislider",
					"numinlets" : 1,
					"numoutlets" : 2,
					"outlettype" : [ "", "" ],
					"parameter_enable" : 0,
					"patching_rect" : [ 840.0, 120.0, 195.0, 120.0 ],
					"setminmax" : [ 0.0, 1.0 ],
					"size" : 16
				}

			}
, 			{
				"box" : 				{
					"id" : "obj-48",
					"maxclass" : "newobj",
					"numinlets" : 1,
					"numoutlets" : 1,
					"outlettype" : [ "" ],
					"patching_rect" : [ 840.0, 255.0, 79.0, 22.0 ],
					"text" : "prepend blue"
				}

			}
, 			{
				"box" : 				{
					"contdata" : 1,
					"id" : "obj-46",
					"maxclass" : "multislider",
					"numinlets" : 1,
					"numoutlets" : 2,
					"outlettype" : [ "", "" ],
					"parameter_enable" : 0,
					"patching_rect" : [ 615.0, 120.0, 195.0, 120.0 ],
					"setminmax" : [ 0.0, 1.0 ],
					"size" : 16
				}

			}
, 			{
				"box" : 				{
					"id" : "obj-45",
					"maxclass" : "newobj",
					"numinlets" : 1,
					"numoutlets" : 1,
					"outlettype" : [ "" ],
					"patching_rect" : [ 615.0, 255.0, 73.0, 22.0 ],
					"text" : "prepend red"
				}

			}
, 			{
				"box" : 				{
					"attr" : "active",
					"id" : "obj-29",
					"maxclass" : "attrui",
					"numinlets" : 1,
					"numoutlets" : 1,
					"outlettype" : [ "" ],
					"parameter_enable" : 0,
					"patching_rect" : [ 570.0, 450.0, 150.0, 22.0 ]
				}

			}
, 			{
				"box" : 				{
					"id" : "obj-30",
					"maxclass" : "newobj",
					"numinlets" : 1,
					"numoutlets" : 0,
					"patching_rect" : [ 540.0, 495.0, 75.0, 22.0 ],
					"text" : "beam.output"
				}

			}
, 			{
				"box" : 				{
					"format" : 6,
					"id" : "obj-26",
					"maxclass" : "flonum",
					"numinlets" : 1,
					"numoutlets" : 2,
					"outlettype" : [ "", "bang" ],
					"parameter_enable" : 0,
					"patching_rect" : [ 540.0, 210.0, 50.0, 22.0 ]
				}

			}
, 			{
				"box" : 				{
					"id" : "obj-27",
					"maxclass" : "message",
					"numinlets" : 2,
					"numoutlets" : 1,
					"outlettype" : [ "" ],
					"patching_rect" : [ 540.0, 255.0, 45.0, 22.0 ],
					"text" : "dim $1"
				}

			}
, 			{
				"box" : 				{
					"id" : "obj-28",
					"maxclass" : "newobj",
					"numinlets" : 1,
					"numoutlets" : 1,
					"outlettype" : [ "beam_signal" ],
					"patching_rect" : [ 540.0, 330.0, 115.0, 22.0 ],
					"saved_object_attributes" : 					{
						"tag" : "ledbar252"
					}
,
					"text" : "beam.tag ledbar252"
				}

			}
, 			{
				"box" : 				{
					"attr" : "framerate",
					"id" : "obj-22",
					"maxclass" : "attrui",
					"numinlets" : 1,
					"numoutlets" : 1,
					"outlettype" : [ "" ],
					"parameter_enable" : 0,
					"patching_rect" : [ 300.0, 495.0, 150.0, 22.0 ]
				}

			}
, 			{
				"box" : 				{
					"id" : "obj-21",
					"maxclass" : "newobj",
					"numinlets" : 1,
					"numoutlets" : 1,
					"outlettype" : [ "" ],
					"patching_rect" : [ 300.0, 540.0, 65.0, 22.0 ],
					"text" : "beam.core"
				}

			}
, 			{
				"box" : 				{
					"attr" : "active",
					"id" : "obj-20",
					"maxclass" : "attrui",
					"numinlets" : 1,
					"numoutlets" : 1,
					"outlettype" : [ "" ],
					"parameter_enable" : 0,
					"patching_rect" : [ 135.0, 495.0, 150.0, 22.0 ]
				}

			}
, 			{
				"box" : 				{
					"id" : "obj-19",
					"maxclass" : "newobj",
					"numinlets" : 2,
					"numoutlets" : 1,
					"outlettype" : [ "" ],
					"patching_rect" : [ 180.0, 210.0, 73.0, 22.0 ],
					"text" : "speedlim 25"
				}

			}
, 			{
				"box" : 				{
					"id" : "obj-18",
					"maxclass" : "newobj",
					"numinlets" : 2,
					"numoutlets" : 1,
					"outlettype" : [ "float" ],
					"patching_rect" : [ 192.0, 66.0, 81.0, 22.0 ],
					"text" : "snapshot~ 20"
				}

			}
, 			{
				"box" : 				{
					"id" : "obj-17",
					"maxclass" : "message",
					"numinlets" : 2,
					"numoutlets" : 1,
					"outlettype" : [ "" ],
					"patching_rect" : [ 174.5, 105.0, 71.0, 22.0 ],
					"text" : "hsl $1 1 0.5"
				}

			}
, 			{
				"box" : 				{
					"id" : "obj-15",
					"maxclass" : "newobj",
					"numinlets" : 2,
					"numoutlets" : 1,
					"outlettype" : [ "signal" ],
					"patching_rect" : [ 192.0, 33.0, 72.0, 22.0 ],
					"text" : "phasor~ 0.1"
				}

			}
, 			{
				"box" : 				{
					"id" : "obj-14",
					"maxclass" : "newobj",
					"numinlets" : 6,
					"numoutlets" : 1,
					"outlettype" : [ "signal" ],
					"patching_rect" : [ 270.0, 285.0, 88.0, 22.0 ],
					"text" : "scale~ -1 1 0 1"
				}

			}
, 			{
				"box" : 				{
					"id" : "obj-13",
					"maxclass" : "newobj",
					"numinlets" : 2,
					"numoutlets" : 1,
					"outlettype" : [ "signal" ],
					"patching_rect" : [ 270.0, 240.0, 53.0, 22.0 ],
					"text" : "cycle~ 1"
				}

			}
, 			{
				"box" : 				{
					"id" : "obj-12",
					"maxclass" : "newobj",
					"numinlets" : 2,
					"numoutlets" : 1,
					"outlettype" : [ "beam_signal" ],
					"patching_rect" : [ 105.0, 330.0, 150.0, 22.0 ],
					"saved_object_attributes" : 					{
						"param" : "dim"
					}
,
					"text" : "beam.catch~ @param dim"
				}

			}
, 			{
				"box" : 				{
					"id" : "obj-11",
					"maxclass" : "message",
					"numinlets" : 2,
					"numoutlets" : 1,
					"outlettype" : [ "" ],
					"patching_rect" : [ 180.0, 240.0, 76.0, 22.0 ],
					"text" : "rgb $1 $2 $3"
				}

			}
, 			{
				"box" : 				{
					"id" : "obj-9",
					"maxclass" : "swatch",
					"numinlets" : 3,
					"numoutlets" : 2,
					"outlettype" : [ "", "float" ],
					"parameter_enable" : 0,
					"patching_rect" : [ 180.0, 165.0, 128.0, 32.0 ],
					"saturation" : 1.0
				}

			}
, 			{
				"box" : 				{
					"format" : 6,
					"id" : "obj-8",
					"maxclass" : "flonum",
					"numinlets" : 1,
					"numoutlets" : 2,
					"outlettype" : [ "", "bang" ],
					"parameter_enable" : 0,
					"patching_rect" : [ 105.0, 195.0, 50.0, 22.0 ]
				}

			}
, 			{
				"box" : 				{
					"id" : "obj-6",
					"maxclass" : "message",
					"numinlets" : 2,
					"numoutlets" : 1,
					"outlettype" : [ "" ],
					"patching_rect" : [ 105.0, 240.0, 45.0, 22.0 ],
					"text" : "dim $1"
				}

			}
, 			{
				"box" : 				{
					"id" : "obj-4",
					"maxclass" : "newobj",
					"numinlets" : 1,
					"numoutlets" : 1,
					"outlettype" : [ "beam_signal" ],
					"patching_rect" : [ 105.0, 285.0, 93.0, 22.0 ],
					"saved_object_attributes" : 					{
						"tag" : "par64"
					}
,
					"text" : "beam.tag par64"
				}

			}
, 			{
				"box" : 				{
					"id" : "obj-3",
					"maxclass" : "newobj",
					"numinlets" : 1,
					"numoutlets" : 0,
					"patching_rect" : [ 105.0, 540.0, 75.0, 22.0 ],
					"text" : "beam.output"
				}

			}
, 			{
				"box" : 				{
					"bgmode" : 0,
					"border" : 0,
					"clickthrough" : 0,
					"enablehscroll" : 0,
					"enablevscroll" : 0,
					"id" : "obj-2",
					"lockeddragscroll" : 0,
					"lockedsize" : 0,
					"maxclass" : "bpatcher",
					"name" : "beam.patcheditor.maxpat",
					"numinlets" : 1,
					"numoutlets" : 1,
					"offset" : [ 0.0, 0.0 ],
					"outlettype" : [ "" ],
					"patching_rect" : [ 1290.0, 607.0, 776.0, 467.0 ],
					"viewvisibility" : 1
				}

			}
, 			{
				"box" : 				{
					"bgmode" : 0,
					"border" : 0,
					"clickthrough" : 0,
					"enablehscroll" : 0,
					"enablevscroll" : 0,
					"id" : "obj-1",
					"lockeddragscroll" : 0,
					"lockedsize" : 0,
					"maxclass" : "bpatcher",
					"name" : "beam.ioeditor.maxpat",
					"numinlets" : 1,
					"numoutlets" : 1,
					"offset" : [ 0.0, 0.0 ],
					"outlettype" : [ "" ],
					"patching_rect" : [ 1290.0, 120.0, 776.0, 467.0 ],
					"viewvisibility" : 1
				}

			}
 ],
		"lines" : [ 			{
				"patchline" : 				{
					"destination" : [ "obj-4", 0 ],
					"source" : [ "obj-11", 0 ]
				}

			}
, 			{
				"patchline" : 				{
					"destination" : [ "obj-3", 0 ],
					"source" : [ "obj-12", 0 ]
				}

			}
, 			{
				"patchline" : 				{
					"destination" : [ "obj-14", 0 ],
					"source" : [ "obj-13", 0 ]
				}

			}
, 			{
				"patchline" : 				{
					"destination" : [ "obj-12", 1 ],
					"source" : [ "obj-14", 0 ]
				}

			}
, 			{
				"patchline" : 				{
					"destination" : [ "obj-18", 0 ],
					"source" : [ "obj-15", 0 ]
				}

			}
, 			{
				"patchline" : 				{
					"destination" : [ "obj-9", 0 ],
					"source" : [ "obj-17", 0 ]
				}

			}
, 			{
				"patchline" : 				{
					"destination" : [ "obj-17", 0 ],
					"source" : [ "obj-18", 0 ]
				}

			}
, 			{
				"patchline" : 				{
					"destination" : [ "obj-11", 0 ],
					"source" : [ "obj-19", 0 ]
				}

			}
, 			{
				"patchline" : 				{
					"destination" : [ "obj-3", 0 ],
					"source" : [ "obj-20", 0 ]
				}

			}
, 			{
				"patchline" : 				{
					"destination" : [ "obj-21", 0 ],
					"source" : [ "obj-22", 0 ]
				}

			}
, 			{
				"patchline" : 				{
					"destination" : [ "obj-27", 0 ],
					"source" : [ "obj-26", 0 ]
				}

			}
, 			{
				"patchline" : 				{
					"destination" : [ "obj-28", 0 ],
					"source" : [ "obj-27", 0 ]
				}

			}
, 			{
				"patchline" : 				{
					"destination" : [ "obj-30", 0 ],
					"source" : [ "obj-28", 0 ]
				}

			}
, 			{
				"patchline" : 				{
					"destination" : [ "obj-30", 0 ],
					"source" : [ "obj-29", 0 ]
				}

			}
, 			{
				"patchline" : 				{
					"destination" : [ "obj-12", 0 ],
					"source" : [ "obj-4", 0 ]
				}

			}
, 			{
				"patchline" : 				{
					"destination" : [ "obj-28", 0 ],
					"midpoints" : [ 624.5, 303.0, 549.5, 303.0 ],
					"source" : [ "obj-45", 0 ]
				}

			}
, 			{
				"patchline" : 				{
					"destination" : [ "obj-45", 0 ],
					"source" : [ "obj-46", 0 ]
				}

			}
, 			{
				"patchline" : 				{
					"destination" : [ "obj-48", 0 ],
					"source" : [ "obj-47", 0 ]
				}

			}
, 			{
				"patchline" : 				{
					"destination" : [ "obj-28", 0 ],
					"midpoints" : [ 849.5, 303.0, 549.5, 303.0 ],
					"source" : [ "obj-48", 0 ]
				}

			}
, 			{
				"patchline" : 				{
					"destination" : [ "obj-50", 0 ],
					"source" : [ "obj-49", 0 ]
				}

			}
, 			{
				"patchline" : 				{
					"destination" : [ "obj-28", 0 ],
					"midpoints" : [ 1059.5, 303.0, 549.5, 303.0 ],
					"source" : [ "obj-50", 0 ]
				}

			}
, 			{
				"patchline" : 				{
					"destination" : [ "obj-4", 0 ],
					"source" : [ "obj-6", 0 ]
				}

			}
, 			{
				"patchline" : 				{
					"destination" : [ "obj-6", 0 ],
					"source" : [ "obj-8", 0 ]
				}

			}
, 			{
				"patchline" : 				{
					"destination" : [ "obj-19", 0 ],
					"source" : [ "obj-9", 0 ]
				}

			}
 ],
		"dependency_cache" : [ 			{
				"name" : "beam.ioeditor.IOInspector.maxpat",
				"bootpath" : "~/Documents/Max 8/Packages/Beam for Max/patchers/beam.ioeditor",
				"patcherrelativepath" : "../Documents/Max 8/Packages/Beam for Max/patchers/beam.ioeditor",
				"type" : "JSON",
				"implicit" : 1
			}
, 			{
				"name" : "beam.ioeditor.IOListItem.ArtNetOutput.maxpat",
				"bootpath" : "~/Documents/Max 8/Packages/Beam for Max/patchers/beam.ioeditor",
				"patcherrelativepath" : "../Documents/Max 8/Packages/Beam for Max/patchers/beam.ioeditor",
				"type" : "JSON",
				"implicit" : 1
			}
, 			{
				"name" : "beam.ioeditor.IOListItem.OutputsTitle.maxpat",
				"bootpath" : "~/Documents/Max 8/Packages/Beam for Max/patchers/beam.ioeditor",
				"patcherrelativepath" : "../Documents/Max 8/Packages/Beam for Max/patchers/beam.ioeditor",
				"type" : "JSON",
				"implicit" : 1
			}
, 			{
				"name" : "beam.ioeditor.IOListTable.maxpat",
				"bootpath" : "~/Documents/Max 8/Packages/Beam for Max/patchers/beam.ioeditor",
				"patcherrelativepath" : "../Documents/Max 8/Packages/Beam for Max/patchers/beam.ioeditor",
				"type" : "JSON",
				"implicit" : 1
			}
, 			{
				"name" : "beam.ioeditor.Main.maxpat",
				"bootpath" : "~/Documents/Max 8/Packages/Beam for Max/patchers/beam.ioeditor",
				"patcherrelativepath" : "../Documents/Max 8/Packages/Beam for Max/patchers/beam.ioeditor",
				"type" : "JSON",
				"implicit" : 1
			}
, 			{
				"name" : "beam.ioeditor.editor.js",
				"bootpath" : "~/Documents/Max 8/Packages/Beam for Max/patchers/beam.ioeditor",
				"patcherrelativepath" : "../Documents/Max 8/Packages/Beam for Max/patchers/beam.ioeditor",
				"type" : "TEXT",
				"implicit" : 1
			}
, 			{
				"name" : "beam.ioeditor.maxpat",
				"bootpath" : "~/Documents/Max 8/Packages/Beam for Max/patchers/beam.ioeditor",
				"patcherrelativepath" : "../Documents/Max 8/Packages/Beam for Max/patchers/beam.ioeditor",
				"type" : "JSON",
				"implicit" : 1
			}
, 			{
				"name" : "beam.ioeditor.view.js",
				"bootpath" : "~/Documents/Max 8/Packages/Beam for Max/patchers/beam.ioeditor",
				"patcherrelativepath" : "../Documents/Max 8/Packages/Beam for Max/patchers/beam.ioeditor",
				"type" : "TEXT",
				"implicit" : 1
			}
, 			{
				"name" : "beam.patcheditor.FixtureInspector.maxpat",
				"bootpath" : "~/Documents/Max 8/Packages/Beam for Max/patchers/beam.patcheditor",
				"patcherrelativepath" : "../Documents/Max 8/Packages/Beam for Max/patchers/beam.patcheditor",
				"type" : "JSON",
				"implicit" : 1
			}
, 			{
				"name" : "beam.patcheditor.FixtureListItem.maxpat",
				"bootpath" : "~/Documents/Max 8/Packages/Beam for Max/patchers/beam.patcheditor",
				"patcherrelativepath" : "../Documents/Max 8/Packages/Beam for Max/patchers/beam.patcheditor",
				"type" : "JSON",
				"implicit" : 1
			}
, 			{
				"name" : "beam.patcheditor.FixtureListTable.maxpat",
				"bootpath" : "~/Documents/Max 8/Packages/Beam for Max/patchers/beam.patcheditor",
				"patcherrelativepath" : "../Documents/Max 8/Packages/Beam for Max/patchers/beam.patcheditor",
				"type" : "JSON",
				"implicit" : 1
			}
, 			{
				"name" : "beam.patcheditor.Main.maxpat",
				"bootpath" : "~/Documents/Max 8/Packages/Beam for Max/patchers/beam.patcheditor",
				"patcherrelativepath" : "../Documents/Max 8/Packages/Beam for Max/patchers/beam.patcheditor",
				"type" : "JSON",
				"implicit" : 1
			}
, 			{
				"name" : "beam.patcheditor.editor.js",
				"bootpath" : "~/Documents/Max 8/Packages/Beam for Max/patchers/beam.patcheditor",
				"patcherrelativepath" : "../Documents/Max 8/Packages/Beam for Max/patchers/beam.patcheditor",
				"type" : "TEXT",
				"implicit" : 1
			}
, 			{
				"name" : "beam.patcheditor.maxpat",
				"bootpath" : "~/Documents/Max 8/Packages/Beam for Max/patchers/beam.patcheditor",
				"patcherrelativepath" : "../Documents/Max 8/Packages/Beam for Max/patchers/beam.patcheditor",
				"type" : "JSON",
				"implicit" : 1
			}
, 			{
				"name" : "beam.patcheditor.view.js",
				"bootpath" : "~/Documents/Max 8/Packages/Beam for Max/patchers/beam.patcheditor",
				"patcherrelativepath" : "../Documents/Max 8/Packages/Beam for Max/patchers/beam.patcheditor",
				"type" : "TEXT",
				"implicit" : 1
			}
 ],
		"autosave" : 0
	}

}
